<svg id="OBJECTS" xmlns="http://www.w3.org/2000/svg" xmlns:xlink="http://www.w3.org/1999/xlink" viewBox="0 0 610.98 281.22"><defs><linearGradient id="linear-gradient" x1="372.07" y1="254.36" x2="610.96" y2="254.36" gradientTransform="translate(983.63 507.72) rotate(179.88)" gradientUnits="userSpaceOnUse"><stop offset="0" stop-color="#fff"/><stop offset="1" stop-color="#fcdc97"/></linearGradient><linearGradient id="Degradado_sin_nombre_2" x1="349.17" y1="250.63" x2="396.99" y2="250.63" gradientUnits="userSpaceOnUse"><stop offset="0" stop-color="#f2f2f2"/><stop offset="1" stop-color="#fff"/></linearGradient><radialGradient id="Degradado_sin_nombre_3" cx="368.84" cy="250.89" r="27.73" gradientTransform="translate(558.68 -157.26) rotate(79.98)" gradientUnits="userSpaceOnUse"><stop offset="0.07" stop-color="#fff"/><stop offset="0.62" stop-color="#f0f0f0"/><stop offset="1" stop-color="#ccc"/></radialGradient><linearGradient id="linear-gradient-2" x1="432.73" y1="180.17" x2="610.96" y2="180.17" gradientTransform="translate(1044.26 358.93) rotate(179.84)" xlink:href="#linear-gradient"/><linearGradient id="Degradado_sin_nombre_2-2" x1="415.99" y1="180.2" x2="463.82" y2="180.2" gradientTransform="translate(100.45 -152.61) rotate(22.16)" xlink:href="#Degradado_sin_nombre_2"/><radialGradient id="Degradado_sin_nombre_3-2" cx="435.67" cy="176.72" r="27.73" gradientTransform="translate(256.27 -258.28) rotate(45)" xlink:href="#Degradado_sin_nombre_3"/><linearGradient id="linear-gradient-3" x1="373.07" y1="33.14" x2="610.98" y2="33.14" gradientTransform="translate(984.05 66.29) rotate(180)" xlink:href="#linear-gradient"/><linearGradient id="Degradado_sin_nombre_2-3" x1="349.17" y1="29.39" x2="396.99" y2="29.39" xlink:href="#Degradado_sin_nombre_2"/><radialGradient id="Degradado_sin_nombre_3-3" cx="368.84" cy="29.66" r="27.73" gradientTransform="matrix(0.17, 0.98, -0.98, 0.17, 340.81, -340.01)" xlink:href="#Degradado_sin_nombre_3"/><linearGradient id="linear-gradient-4" x1="432.8" y1="106.69" x2="610.98" y2="106.69" gradientTransform="translate(1043.77 213.37) rotate(-180)" xlink:href="#linear-gradient"/><linearGradient id="Degradado_sin_nombre_2-4" x1="415.99" y1="106.69" x2="463.82" y2="106.69" gradientTransform="translate(475.29 -344.59) rotate(80.85)" xlink:href="#Degradado_sin_nombre_2"/><radialGradient id="Degradado_sin_nombre_3-4" cx="435.67" cy="103.2" r="27.73" gradientTransform="translate(443.64 -345.96) rotate(76.84)" xlink:href="#Degradado_sin_nombre_3"/><linearGradient id="linear-gradient-5" x1="-0.01" y1="254.36" x2="243.4" y2="254.36" gradientTransform="translate(0.53 -0.25) rotate(0.12)" gradientUnits="userSpaceOnUse"><stop offset="0" stop-color="#fcdc97"/><stop offset="1" stop-color="#fff"/></linearGradient><linearGradient id="Degradado_sin_nombre_2-5" x1="222.6" y1="250.63" x2="270.42" y2="250.63" xlink:href="#Degradado_sin_nombre_2"/><radialGradient id="Degradado_sin_nombre_3-5" cx="242.27" cy="250.89" r="27.73" gradientTransform="translate(252.07 -99.8) rotate(45)" xlink:href="#Degradado_sin_nombre_3"/><linearGradient id="linear-gradient-6" x1="0" y1="29.39" x2="241.41" y2="29.39" gradientTransform="matrix(1, 0, 0, 1, 0, 0)" xlink:href="#linear-gradient-5"/><linearGradient id="Degradado_sin_nombre_2-6" x1="222.6" y1="29.39" x2="270.42" y2="29.39" xlink:href="#Degradado_sin_nombre_2"/><radialGradient id="Degradado_sin_nombre_3-6" cx="242.27" cy="29.66" r="27.73" gradientTransform="translate(95.63 -164.6) rotate(45)" xlink:href="#Degradado_sin_nombre_3"/><linearGradient id="linear-gradient-7" x1="-0.01" y1="180.17" x2="178.23" y2="180.17" gradientTransform="translate(0.51 -0.25) rotate(0.16)" xlink:href="#linear-gradient-5"/><linearGradient id="Degradado_sin_nombre_2-7" x1="159.44" y1="180.2" x2="207.26" y2="180.2" gradientTransform="translate(316.07 -39.97) rotate(76.58)" xlink:href="#Degradado_sin_nombre_2"/><radialGradient id="Degradado_sin_nombre_3-7" cx="179.12" cy="176.72" r="27.73" gradientTransform="translate(316.13 -39.94) rotate(76.59)" xlink:href="#Degradado_sin_nombre_3"/><linearGradient id="linear-gradient-8" x1="0" y1="102.94" x2="178.18" y2="102.94" gradientTransform="matrix(1, 0, 0, 1, 0, 0)" xlink:href="#linear-gradient-5"/><linearGradient id="Degradado_sin_nombre_2-8" x1="159.44" y1="106.69" x2="207.26" y2="106.69" gradientTransform="translate(129.14 -98.4) rotate(45)" xlink:href="#Degradado_sin_nombre_2"/><radialGradient id="Degradado_sin_nombre_3-8" cx="179.12" cy="103.2" r="27.73" gradientTransform="translate(129.14 -98.4) rotate(45)" xlink:href="#Degradado_sin_nombre_3"/></defs><title>flow kerja</title><path d="M393.53,233H611a0,0,0,0,1,0,0v42.8a0,0,0,0,1,0,0H393.53a21.4,21.4,0,0,1-21.4-21.4v0a21.4,21.4,0,0,1,21.4-21.4Z" transform="translate(982.56 506.05) rotate(-179.88)" fill="url(#linear-gradient)"/><circle cx="373.07" cy="254.38" r="29.39" transform="matrix(0.17, -0.98, 0.98, 0.17, 57.53, 573.62)" fill="#366eb6"/><circle cx="373.08" cy="250.63" r="23.91" fill="url(#Degradado_sin_nombre_2)"/><circle cx="373.07" cy="254.38" r="21.42" transform="translate(57.68 573.76) rotate(-79.98)" fill="url(#Degradado_sin_nombre_3)"/><path d="M454.19,158.8H611a0,0,0,0,1,0,0v42.8a0,0,0,0,1,0,0H454.19a21.4,21.4,0,0,1-21.4-21.4v0A21.4,21.4,0,0,1,454.19,158.8Z" transform="translate(1043.24 358.14) rotate(-179.84)" fill="url(#linear-gradient-2)"/><circle cx="439.9" cy="180.2" r="29.39" transform="translate(190.96 581.44) rotate(-80.7)" fill="#366eb6"/><circle cx="439.9" cy="180.2" r="23.91" transform="translate(-35.47 175.47) rotate(-22.16)" fill="url(#Degradado_sin_nombre_2-2)"/><circle cx="439.9" cy="180.2" r="21.42" transform="translate(1.43 360.09) rotate(-45)" fill="url(#Degradado_sin_nombre_3-2)"/><path d="M394.48,11.74H611a0,0,0,0,1,0,0v42.8a0,0,0,0,1,0,0H394.48a21.4,21.4,0,0,1-21.4-21.4v0A21.4,21.4,0,0,1,394.48,11.74Z" transform="translate(984.06 62.54) rotate(-180)" fill="url(#linear-gradient-3)"/><circle cx="373.07" cy="33.14" r="29.39" transform="matrix(0.17, -0.98, 0.98, 0.17, 275.37, 390.97)" fill="#366eb6"/><circle cx="373.08" cy="29.39" r="23.91" fill="url(#Degradado_sin_nombre_2-3)"/><circle cx="373.07" cy="33.14" r="21.42" transform="translate(275.54 391.01) rotate(-79.98)" fill="url(#Degradado_sin_nombre_3-3)"/><path d="M454.2,85.28H611a0,0,0,0,1,0,0v42.8a0,0,0,0,1,0,0H454.2a21.4,21.4,0,0,1-21.4-21.4v0a21.4,21.4,0,0,1,21.4-21.4Z" transform="translate(1043.78 209.62) rotate(180)" fill="url(#linear-gradient-4)"/><circle cx="439.9" cy="106.69" r="29.39" transform="translate(-6.8 176.08) rotate(-22.93)" fill="#366eb6"/><circle cx="439.9" cy="106.69" r="23.91" transform="translate(264.64 520.28) rotate(-80.85)" fill="url(#Degradado_sin_nombre_2-4)"/><circle cx="439.9" cy="106.69" r="21.42" transform="translate(235.88 507) rotate(-76.84)" fill="url(#Degradado_sin_nombre_3-4)"/><path d="M21.4,233H243.34a0,0,0,0,1,0,0v42.8a0,0,0,0,1,0,0H21.4A21.4,21.4,0,0,1,0,254.38v0A21.4,21.4,0,0,1,21.4,233Z" transform="translate(-0.52 -3.5) rotate(-0.12)" fill="url(#linear-gradient-5)"/><circle cx="246.5" cy="254.38" r="29.39" transform="translate(-107.67 245.06) rotate(-45)" fill="#366eb6"/><circle cx="246.51" cy="250.63" r="23.91" fill="url(#Degradado_sin_nombre_2-5)"/><circle cx="246.5" cy="254.38" r="21.42" transform="translate(-107.67 245.06) rotate(-45)" fill="url(#Degradado_sin_nombre_3-5)"/><path d="M21.4,8h220a0,0,0,0,1,0,0V50.8a0,0,0,0,1,0,0H21.4A21.4,21.4,0,0,1,0,29.39v0A21.4,21.4,0,0,1,21.4,8Z" fill="url(#linear-gradient-6)"/><text transform="translate(23.89 33.45)" font-size="12" font-family="Poppins-Regular, Poppins">Konsultasi</text><circle cx="246.5" cy="33.14" r="29.39" transform="translate(48.77 180.26) rotate(-45)" fill="#366eb6"/><circle cx="246.51" cy="29.39" r="23.91" fill="url(#Degradado_sin_nombre_2-6)"/><circle cx="246.5" cy="33.14" r="21.42" transform="translate(48.77 180.26) rotate(-45)" fill="url(#Degradado_sin_nombre_3-6)"/><path d="M21.4,158.8H178.17a0,0,0,0,1,0,0v42.8a0,0,0,0,1,0,0H21.4A21.4,21.4,0,0,1,0,180.2v0a21.4,21.4,0,0,1,21.4-21.4Z" transform="translate(-0.5 -3.5) rotate(-0.16)" fill="url(#linear-gradient-7)"/><circle cx="183.35" cy="180.2" r="29.39" transform="translate(-34.56 312.84) rotate(-76.55)" fill="#366eb6"/><circle cx="183.35" cy="180.2" r="23.91" transform="translate(-34.48 312.97) rotate(-76.58)" fill="url(#Degradado_sin_nombre_2-7)"/><circle cx="183.35" cy="180.2" r="21.42" transform="translate(-34.45 313.02) rotate(-76.59)" fill="url(#Degradado_sin_nombre_3-7)"/><path d="M21.4,81.53H178.18a0,0,0,0,1,0,0v42.8a0,0,0,0,1,0,0H21.4A21.4,21.4,0,0,1,0,102.94v0a21.4,21.4,0,0,1,21.4-21.4Z" fill="url(#linear-gradient-8)"/><circle cx="183.35" cy="106.69" r="29.39" transform="translate(-21.73 157.15) rotate(-45)" fill="#366eb6"/><circle cx="183.35" cy="106.69" r="23.91" transform="translate(-21.73 157.15) rotate(-45)" fill="url(#Degradado_sin_nombre_2-8)"/><circle cx="183.35" cy="106.69" r="21.42" transform="translate(-21.73 157.15) rotate(-45)" fill="url(#Degradado_sin_nombre_3-8)"/><path d="M375.79,179.05V111.29A11.6,11.6,0,0,0,370,101.22L311.29,67.33a11.67,11.67,0,0,0-11.63,0L241,101.22a11.61,11.61,0,0,0-5.82,10.07v67.76A11.63,11.63,0,0,0,241,189.12L299.66,223a11.62,11.62,0,0,0,11.63,0L370,189.12A11.62,11.62,0,0,0,375.79,179.05Z" transform="translate(0.01 -3.75)" fill="#f05738"/><path d="M332.26,112.39h22.9l-19,33.41a22.6,22.6,0,0,1-19.64,11.42H306.21Z" transform="translate(0.01 -3.75)" fill="#fff"/><path d="M316.71,178.39l-11.33,19.89-19.62-33.06a22.62,22.62,0,0,1-.2-22.72l5.09-8.93Z" transform="translate(0.01 -3.75)" fill="#fff"/><path d="M267.11,131.87,255.8,112l38.44,0a22.59,22.59,0,0,1,19.63,11.43l5.09,8.93Z" transform="translate(0.01 -3.75)" fill="#fff"/><text transform="translate(23.89 107.37)" font-size="12" font-family="Poppins-Regular, Poppins">Kirim Data &amp; Metpen</text><text transform="translate(23.89 181.41)" font-size="12" font-family="Poppins-Regular, Poppins">Pengerjaan</text><text transform="translate(23.89 255.28)" font-size="12" font-family="Poppins-Regular, Poppins">Share Hasil via Whatsapp</text><text transform="translate(515.22 33.45)" font-size="12" font-family="Poppins-Regular, Poppins">Pembayaran</text><text transform="translate(484.36 107.37)" font-size="12" font-family="Poppins-Regular, Poppins">Kirim File Via Email</text><text transform="translate(510.3 181.41)" font-size="12" font-family="Poppins-Regular, Poppins">Garansi Revisi</text><text transform="translate(551.59 255.28)" font-size="12" font-family="Poppins-Regular, Poppins">Selesai</text><text transform="translate(240.62 40.86)" font-size="31" fill="#366eb6" font-family="Poppins-Bold, Poppins" font-weight="700">1</text><text transform="translate(174.04 114.74)" font-size="31" fill="#366eb6" font-family="Poppins-Bold, Poppins" font-weight="700">2</text><text transform="translate(429.58 114.74)" font-size="31" fill="#366eb6" font-family="Poppins-Bold, Poppins" font-weight="700">6</text><text transform="translate(361.96 39.16)" font-size="31" fill="#366eb6" font-family="Poppins-Bold, Poppins" font-weight="700">5</text><text transform="translate(174.04 186.57)" font-size="31" fill="#366eb6" font-family="Poppins-Bold, Poppins" font-weight="700">3</text><text transform="translate(432.58 186.57)" font-size="31" fill="#366eb6" font-family="Poppins-Bold, Poppins" font-weight="700">7</text><text transform="translate(361.96 262.44)" font-size="31" fill="#366eb6" font-family="Poppins-Bold, Poppins" font-weight="700">8</text><text transform="translate(234.31 261.94)" font-size="31" fill="#366eb6" font-family="Poppins-Bold, Poppins" font-weight="700">4</text></svg>