<svg xmlns="http://www.w3.org/2000/svg" width="42" height="32" viewBox="0 0 42 32">
  <g id="icons8-gmail" transform="translate(-3 -8)">
    <path id="Path_1823" data-name="Path 1823" d="M45,16.2l-5,2.75L35,23.7V40h7a3,3,0,0,0,3-3Z" fill="#4caf50"/>
    <path id="Path_1824" data-name="Path 1824" d="M3,16.2l3.614,1.71L13,23.7V40H6a3,3,0,0,1-3-3Z" fill="#1e88e5"/>
    <path id="Path_1825" data-name="Path 1825" d="M35,11.2,24,19.45,13,11.2,12,17l1,6.7,11,8.25L35,23.7,36,17Z" fill="#e53935"/>
    <path id="Path_1826" data-name="Path 1826" d="M3,12.3v3.9l10,7.5V11.2L9.876,8.859A4.3,4.3,0,0,0,7.3,8h0A4.3,4.3,0,0,0,3,12.3Z" fill="#c62828"/>
    <path id="Path_1827" data-name="Path 1827" d="M45,12.3v3.9L35,23.7V11.2l3.124-2.341A4.3,4.3,0,0,1,40.7,8h0A4.3,4.3,0,0,1,45,12.3Z" fill="#fbc02d"/>
  </g>
</svg>
