<svg xmlns="http://www.w3.org/2000/svg" width="45" height="45" viewBox="0 0 45 45">
  <g id="Group_4931" data-name="Group 4931" transform="translate(-870 -5578)">
    <circle id="Ellipse_76" data-name="Ellipse 76" cx="22.5" cy="22.5" r="22.5" transform="translate(870 5578)" fill="#f05638"/>
    <path id="Icon_material-web" data-name="Icon material-web" d="M22.286,6H5.143A2.14,2.14,0,0,0,3.011,8.143L3,21a2.149,2.149,0,0,0,2.143,2.143H22.286A2.149,2.149,0,0,0,24.429,21V8.143A2.149,2.149,0,0,0,22.286,6ZM16.929,21H5.143V16.714H16.929Zm0-5.357H5.143V11.357H16.929ZM22.286,21H18V11.357h4.286Z" transform="translate(878.786 5585.929)" fill="#fff"/>
  </g>
</svg>
