<svg xmlns="http://www.w3.org/2000/svg" width="44.073" height="35.5" viewBox="0 0 44.073 35.5">
  <path id="icons8-twitter" d="M50.07,13.2a18.335,18.335,0,0,1-5.2,1.422,9.033,9.033,0,0,0,3.98-4.968,18.153,18.153,0,0,1-5.745,2.174,9.018,9.018,0,0,0-15.4,8.178,25.768,25.768,0,0,1-18.636-9.37,8.851,8.851,0,0,0-1.224,4.512,8.942,8.942,0,0,0,4.021,7.462,9.206,9.206,0,0,1-4.1-1.119V21.6a8.989,8.989,0,0,0,7.251,8.791,8.992,8.992,0,0,1-2.376.322,9.607,9.607,0,0,1-1.7-.165,9.059,9.059,0,0,0,8.444,6.226,18.271,18.271,0,0,1-11.23,3.836A17.886,17.886,0,0,1,6,40.479,25.84,25.84,0,0,0,19.859,44.5c16.63,0,25.728-13.657,25.728-25.5,0-.388-.012-.775-.031-1.157A17.789,17.789,0,0,0,50.07,13.2" transform="translate(-5.997 -9)" fill="#03a9f4"/>
</svg>
