<svg xmlns="http://www.w3.org/2000/svg" width="45" height="45" viewBox="0 0 45 45">
  <g id="Group_4928" data-name="Group 4928" transform="translate(-163 -5577)">
    <circle id="Ellipse_75" data-name="Ellipse 75" cx="22.5" cy="22.5" r="22.5" transform="translate(163 5577)" fill="#f05638"/>
    <path id="Icon_awesome-phone-alt" data-name="Icon awesome-phone-alt" d="M19.452,14.15l-4.38-1.877a.939.939,0,0,0-1.1.27l-1.94,2.37a14.5,14.5,0,0,1-6.93-6.93l2.37-1.94a.936.936,0,0,0,.27-1.1L5.87.568A.945.945,0,0,0,4.795.024L.727.963A.939.939,0,0,0,0,1.877,18.145,18.145,0,0,0,18.147,20.024a.939.939,0,0,0,.915-.727L20,15.229a.95.95,0,0,0-.548-1.079Z" transform="translate(175.795 5589.488)" fill="#fff"/>
  </g>
</svg>
