<svg id="icons8-instagram_1_" data-name="icons8-instagram (1)" xmlns="http://www.w3.org/2000/svg" xmlns:xlink="http://www.w3.org/1999/xlink" width="41.803" height="41.803" viewBox="0 0 41.803 41.803">
  <defs>
    <radialGradient id="radial-gradient" cx="0.372" cy="1.001" r="1.247" gradientUnits="objectBoundingBox">
      <stop offset="0" stop-color="#fd5"/>
      <stop offset="0.328" stop-color="#ff543f"/>
      <stop offset="0.348" stop-color="#fc5245"/>
      <stop offset="0.504" stop-color="#e64771"/>
      <stop offset="0.643" stop-color="#d53e91"/>
      <stop offset="0.761" stop-color="#cc39a4"/>
      <stop offset="0.841" stop-color="#c837ab"/>
    </radialGradient>
    <radialGradient id="radial-gradient-2" cx="0.161" cy="-0.012" r="0.828" gradientTransform="translate(0 -0.004) scale(1 0.666)" gradientUnits="objectBoundingBox">
      <stop offset="0" stop-color="#4168c9"/>
      <stop offset="0.999" stop-color="#4168c9" stop-opacity="0"/>
    </radialGradient>
  </defs>
  <path id="Path_258" data-name="Path 258" d="M38.518,47.771l-23.212.022a9.313,9.313,0,0,1-9.294-9.275L5.99,15.306a9.313,9.313,0,0,1,9.275-9.294L38.477,5.99a9.313,9.313,0,0,1,9.294,9.275l.022,23.212A9.311,9.311,0,0,1,38.518,47.771Z" transform="translate(-5.99 -5.99)" fill="url(#radial-gradient)"/>
  <path id="Path_259" data-name="Path 259" d="M38.518,47.771l-23.212.022a9.313,9.313,0,0,1-9.294-9.275L5.99,15.306a9.313,9.313,0,0,1,9.275-9.294L38.477,5.99a9.313,9.313,0,0,1,9.294,9.275l.022,23.212A9.311,9.311,0,0,1,38.518,47.771Z" transform="translate(-5.99 -5.99)" fill="url(#radial-gradient-2)"/>
  <path id="Path_260" data-name="Path 260" d="M25.124,33.248a8.124,8.124,0,1,1,8.124-8.124A8.134,8.134,0,0,1,25.124,33.248Zm0-13.927a5.8,5.8,0,1,0,5.8,5.8A5.81,5.81,0,0,0,25.124,19.321Z" transform="translate(-4.222 -4.222)" fill="#fff"/>
  <circle id="Ellipse_72" data-name="Ellipse 72" cx="1.741" cy="1.741" r="1.741" transform="translate(27.866 10.457)" fill="#fff"/>
  <path id="Path_261" data-name="Path 261" d="M33.051,41.175H19.124A8.134,8.134,0,0,1,11,33.051V19.124A8.134,8.134,0,0,1,19.124,11H33.051a8.134,8.134,0,0,1,8.124,8.124V33.051A8.134,8.134,0,0,1,33.051,41.175ZM19.124,13.321a5.81,5.81,0,0,0-5.8,5.8V33.051a5.81,5.81,0,0,0,5.8,5.8H33.051a5.81,5.81,0,0,0,5.8-5.8V19.124a5.81,5.81,0,0,0-5.8-5.8Z" transform="translate(-5.185 -5.185)" fill="#fff"/>
</svg>
