<svg xmlns="http://www.w3.org/2000/svg" width="36.146" height="36.145" viewBox="0 0 36.146 36.145">
  <path id="Icon_awesome-linkedin-in" data-name="Icon awesome-linkedin-in" d="M8.091,36.145H.6V12.013H8.091ZM4.34,8.722A4.361,4.361,0,1,1,8.68,4.341,4.376,4.376,0,0,1,4.34,8.722Zm31.8,27.424H28.66V24.4c0-2.8-.056-6.39-3.9-6.39-3.9,0-4.493,3.042-4.493,6.188V36.145H12.785V12.013h7.187v3.292h.1a7.874,7.874,0,0,1,7.09-3.9c7.584,0,8.978,4.994,8.978,11.481V36.145Z" transform="translate(0 0)" fill="#0077b7"/>
</svg>
