<svg xmlns="http://www.w3.org/2000/svg" width="45" height="45" viewBox="0 0 45 45">
  <g id="Group_4930" data-name="Group 4930" transform="translate(-870 -5489)">
    <circle id="Ellipse_74" data-name="Ellipse 74" cx="22.5" cy="22.5" r="22.5" transform="translate(870 5489)" fill="#f05638"/>
    <g id="Icon_ionic-ios-mail" data-name="Icon ionic-ios-mail" transform="translate(882.054 5504.268)">
      <path id="Path_269" data-name="Path 269" d="M24.1,10.345l-5.4,5.5a.1.1,0,0,0,0,.141l3.782,4.028a.652.652,0,0,1,0,.924.655.655,0,0,1-.924,0l-3.767-4.013a.1.1,0,0,0-.146,0l-.919.934a4.044,4.044,0,0,1-2.883,1.215,4.125,4.125,0,0,1-2.943-1.251l-.884-.9a.1.1,0,0,0-.146,0L6.1,20.942a.655.655,0,0,1-.924,0,.652.652,0,0,1,0-.924L8.955,15.99a.107.107,0,0,0,0-.141l-5.409-5.5a.1.1,0,0,0-.171.07V21.429a1.612,1.612,0,0,0,1.607,1.607H22.661a1.612,1.612,0,0,0,1.607-1.607V10.415A.1.1,0,0,0,24.1,10.345Z" transform="translate(-3.375 -8.572)" fill="#fff"/>
      <path id="Path_270" data-name="Path 270" d="M14.065,17.071a2.73,2.73,0,0,0,1.964-.824l7.88-8.021a1.578,1.578,0,0,0-.994-.352H5.22a1.568,1.568,0,0,0-.994.352l7.88,8.021A2.731,2.731,0,0,0,14.065,17.071Z" transform="translate(-3.618 -7.875)" fill="#fff"/>
    </g>
  </g>
</svg>
