<svg id="Layer_1" data-name="Layer 1" xmlns="http://www.w3.org/2000/svg" viewBox="0 0 158.79 158.79"><title>image</title><path d="M153.87,79.19A74.69,74.69,0,0,1,30.73,136,74.69,74.69,0,0,1,148.15,50.48,74.36,74.36,0,0,1,153.87,79.19Z" fill="#e6e7e8"/><path d="M152.3,48.75A79.19,79.19,0,1,0,79.18,158.37a79.2,79.2,0,0,0,79.19-79.18A78.53,78.53,0,0,0,152.3,48.75Zm-22.21,78.74a70.16,70.16,0,0,1-96.44,5.1,66.45,66.45,0,0,1-5.38-5.1,70.19,70.19,0,1,1,101.82,0Z" fill="#366eb6"/><path d="M152.3,48.75A79.19,79.19,0,1,0,79.18,158.37a79.2,79.2,0,0,0,79.19-79.18A78.53,78.53,0,0,0,152.3,48.75Zm-22.21,78.74a70.16,70.16,0,0,1-96.44,5.1,66.45,66.45,0,0,1-5.38-5.1,70.19,70.19,0,1,1,101.82,0Z" fill="#366eb6"/><path d="M136.63,127.49A78.44,78.44,0,0,0,98.8,105.22a80.74,80.74,0,0,0-39.24,0,78.44,78.44,0,0,0-37.83,22.27l-2.93,3.1,2.94,3.1a79.19,79.19,0,0,0,114.89,0l2.93-3.1Zm-10.46,3.84a70.22,70.22,0,0,1-94,0l-.82-.74.82-.74a70.19,70.19,0,0,1,94,0l.82.74Z" fill="#366eb6"/><path d="M79.18,46.58a32.6,32.6,0,1,0,32.61,32.61A32.65,32.65,0,0,0,79.18,46.58Zm0,56.22a23.61,23.61,0,1,1,23.61-23.61A23.63,23.63,0,0,1,79.18,102.8Z" fill="#366eb6"/></svg>