<svg id="Layer_1" data-name="Layer 1" xmlns="http://www.w3.org/2000/svg" viewBox="0 0 1000 265.53"><title>image</title><path d="M377,89l15.24,92.94L440.35,89h44.82l-75.3,134.47H360L335.46,89Z" fill="#231f20"/><path d="M525.5,223.45H483.07L506.68,89h42.43ZM509.67,48.94a24.35,24.35,0,0,1,24.5-24.2c13.15,0,24.5,10.75,24.5,24.2,0,13.15-11.35,23.91-24.5,23.91C520.72,72.85,509.67,62.09,509.67,48.94Z" fill="#231f20"/><path d="M563.15,161.89c0-42.43,28.39-75.9,75.9-75.9,41.24,0,66.63,27.2,66.63,64.55,0,42.43-28.38,75.9-75.89,75.9C588.55,226.44,563.15,199.25,563.15,161.89Zm100.4-10.15c0-17.64-9.86-30.19-26-30.19-19.12,0-32.27,17.34-32.27,39.45,0,17.63,9.86,30.18,26,30.18C650.4,191.18,663.55,173.85,663.55,151.74Z" fill="#231f20"/><path d="M763.35,223.45H720.92l35.56-203.2h42.43Z" fill="#231f20"/><path d="M841.93,223.45H799.5l35.56-203.2h42.43Z" fill="#231f20"/><path d="M904.38,95.26C916.63,89.28,934,86,950.1,86,980,86,1000,97.35,1000,125.44A101.47,101.47,0,0,1,998.51,141l-13.75,78.89c-14.64,3.58-31.38,6.57-49.6,6.57-35.26,0-58.87-12.55-58.87-40,0-30.78,26-43.63,65.74-43.63h14.34l.3-1.2a38.71,38.71,0,0,0,.9-6.87c0-9.26-5.38-12.85-19.13-12.85-12.25,0-29,3-40.34,9.27Zm42.73,99.51,4.78-26H941.73c-15.54,0-23.61,5.08-23.61,14.94,0,8.66,7.18,12.25,17,12.25A62.44,62.44,0,0,0,947.11,194.77Z" fill="#231f20"/><path d="M235.24,1.3h70.43L247.15,104.06a69.54,69.54,0,0,1-60.43,35.13H155.1Z" fill="#f05738"/><path d="M187.38,204.32l-34.85,61.21L92.18,163.82a69.55,69.55,0,0,1-.62-69.9l15.65-27.48Z" fill="#7a54a2"/><path d="M34.81,61.23,0,0,118.26.08a69.54,69.54,0,0,1,60.41,35.17L194.3,62.74Z" fill="#ffd211"/></svg>