<svg id="Layer_1" data-name="Layer 1" xmlns="http://www.w3.org/2000/svg" viewBox="0 0 158.79 158.79"><title>image</title><path d="M158.79,83.83v39c-.16.36-.33.71-.51,1.06a48.24,48.24,0,0,1-8.21,11.78l-.48.49a19.41,19.41,0,0,1-4.91,2.26,19.85,19.85,0,0,1-5.75.85H84.64l-.15-.13a48,48,0,0,1-2.12-6.26c-.11-.43-.22-.87-.31-1.3A47.72,47.72,0,0,1,121,73.62a48.18,48.18,0,0,1,15.16,0,47.33,47.33,0,0,1,15,5.06c.44.23.87.48,1.3.73A47.78,47.78,0,0,1,158.79,83.83Z" fill="#e6e7e8"/><path d="M138.93,19.56H19.85A19.88,19.88,0,0,0,0,39.42v80a19.87,19.87,0,0,0,19.85,19.84H138.93a19.85,19.85,0,0,0,5.75-.85,19.41,19.41,0,0,0,4.91-2.26,19.83,19.83,0,0,0,9.2-16.67v-80A19.88,19.88,0,0,0,138.93,19.56Zm0,112H19.85A12.17,12.17,0,0,1,7.69,119.38v-80A12.18,12.18,0,0,1,19.85,27.25H138.93A12.18,12.18,0,0,1,151.1,39.42v80A12.17,12.17,0,0,1,138.93,131.53Z" fill="#366eb6"/><path d="M154.94,60.27H3.84a3.85,3.85,0,0,1,0-7.69h151.1a3.85,3.85,0,1,1,0,7.69Z" fill="#366eb6"/><rect x="23.83" y="65.13" width="14.53" height="14.53" rx="4.91" fill="#366eb6"/><rect x="56.03" y="65.13" width="14.53" height="14.53" rx="4.91" fill="#366eb6"/><rect x="88.23" y="65.13" width="14.53" height="14.53" rx="4.91" fill="#366eb6"/><rect x="120.43" y="65.13" width="14.53" height="14.53" rx="4.91" fill="#366eb6"/><rect x="23.83" y="89.48" width="14.53" height="14.53" rx="4.91" fill="#366eb6"/><rect x="56.03" y="89.48" width="14.53" height="14.53" rx="4.91" fill="#366eb6"/><rect x="88.23" y="89.48" width="14.53" height="14.53" rx="4.91" fill="#366eb6"/><rect x="120.43" y="89.48" width="14.53" height="14.53" rx="4.91" fill="#366eb6"/><rect x="23.83" y="112.84" width="14.53" height="14.53" rx="4.91" fill="#366eb6"/><rect x="56.03" y="112.84" width="14.53" height="14.53" rx="4.91" fill="#366eb6"/><rect x="88.23" y="112.84" width="14.53" height="14.53" rx="4.91" fill="#366eb6"/><rect x="120.43" y="112.84" width="14.53" height="14.53" rx="4.91" fill="#366eb6"/></svg>