<svg id="Layer_1" data-name="Layer 1" xmlns="http://www.w3.org/2000/svg" viewBox="0 0 158.79 158.79"><title>image</title><path d="M158.79,85.42v39q-.24.54-.51,1a48.1,48.1,0,0,1-8.21,11.79l-.48.49a19.41,19.41,0,0,1-4.91,2.26,19.85,19.85,0,0,1-5.75.85H84.64l-.15-.13a48.49,48.49,0,0,1-2.12-6.26c-.11-.43-.22-.87-.31-1.3A47.72,47.72,0,0,1,121,75.21a48.18,48.18,0,0,1,15.16,0,47.17,47.17,0,0,1,15,5.06c.44.23.87.48,1.3.72A48.8,48.8,0,0,1,158.79,85.42Z" fill="#e6e7e8"/><path d="M138.93,21.15H19.85A19.88,19.88,0,0,0,0,41V121a19.87,19.87,0,0,0,19.85,19.85H138.93a19.85,19.85,0,0,0,5.75-.85,19.41,19.41,0,0,0,4.91-2.26,19.85,19.85,0,0,0,9.2-16.67V41A19.88,19.88,0,0,0,138.93,21.15Zm0,112H19.85A12.17,12.17,0,0,1,7.69,121V41A12.18,12.18,0,0,1,19.85,28.84H138.93A12.18,12.18,0,0,1,151.1,41V121A12.18,12.18,0,0,1,138.93,133.12Z" fill="#366eb6"/><path d="M154.94,61.86H3.84a3.85,3.85,0,0,1,0-7.69h151.1a3.85,3.85,0,1,1,0,7.69Z" fill="#366eb6"/><path d="M32.16,126.82A3.84,3.84,0,0,1,28.32,123V107.76a3.84,3.84,0,1,1,7.68,0V123A3.84,3.84,0,0,1,32.16,126.82Z" fill="#366eb6"/><path d="M51.21,126.82A3.84,3.84,0,0,1,47.37,123V92.54a3.85,3.85,0,0,1,7.69,0V123A3.85,3.85,0,0,1,51.21,126.82Z" fill="#366eb6"/><path d="M70.26,126.82A3.84,3.84,0,0,1,66.42,123V81a3.85,3.85,0,0,1,7.69,0v42A3.85,3.85,0,0,1,70.26,126.82Z" fill="#366eb6"/></svg>