<svg id="Layer_1" data-name="Layer 1" xmlns="http://www.w3.org/2000/svg" viewBox="0 0 158.79 158.79"><title>image</title><path d="M149.71,113.28V45.51a11.64,11.64,0,0,0-5.82-10.07L85.21,1.56a11.62,11.62,0,0,0-11.63,0L14.89,35.44A11.65,11.65,0,0,0,9.08,45.51v67.77a11.65,11.65,0,0,0,5.81,10.07l58.69,33.88a11.62,11.62,0,0,0,11.63,0l58.68-33.88A11.64,11.64,0,0,0,149.71,113.28Z" fill="#f05738"/><path d="M108.3,43.24H133l-20.53,36A24.38,24.38,0,0,1,91.28,91.61H80.19Z" fill="#fff"/><path d="M91.51,114.45,79.29,135.92,58.12,100.24a24.38,24.38,0,0,1-.22-24.51l5.49-9.64Z" fill="#fff"/><path d="M38,64.26,25.79,42.79l41.48,0A24.4,24.4,0,0,1,88.45,55.15l5.49,9.64Z" fill="#fff"/></svg>