<svg xmlns="http://www.w3.org/2000/svg" xmlns:xlink="http://www.w3.org/1999/xlink" width="428.252" height="1298.279" viewBox="0 0 428.252 1298.279">
  <defs>
    <filter id="Rectangle_105" x="0" y="29.935" width="428.252" height="606.779" filterUnits="userSpaceOnUse">
      <feOffset dy="4" input="SourceAlpha"/>
      <feGaussianBlur stdDeviation="13.5" result="blur"/>
      <feFlood flood-opacity="0.039"/>
      <feComposite operator="in" in2="blur"/>
      <feComposite in="SourceGraphic"/>
    </filter>
    <clipPath id="clip-path">
      <rect width="23.222" height="438.03" fill="none"/>
    </clipPath>
    <filter id="Rectangle_367" x="0" y="691.5" width="428.252" height="606.779" filterUnits="userSpaceOnUse">
      <feOffset dy="4" input="SourceAlpha"/>
      <feGaussianBlur stdDeviation="13.5" result="blur-2"/>
      <feFlood flood-opacity="0.039"/>
      <feComposite operator="in" in2="blur-2"/>
      <feComposite in="SourceGraphic"/>
    </filter>
    <clipPath id="clip-path-2">
      <rect width="19.057" height="450.9" fill="none"/>
    </clipPath>
  </defs>
  <g id="Group_5000" data-name="Group 5000" transform="translate(26.5 -30.345)">
    <g id="Group_4995" data-name="Group 4995">
      <g transform="matrix(1, 0, 0, 1, -26.5, 30.34)" filter="url(#Rectangle_105)">
        <rect id="Rectangle_105-2" data-name="Rectangle 105" width="347.252" height="525.779" rx="25" transform="translate(40.5 66.44)" fill="#fff"/>
      </g>
      <g id="Group_4992" data-name="Group 4992" transform="translate(12 -19)">
        <rect id="Rectangle_108" data-name="Rectangle 108" width="328" height="69" transform="translate(12 334)" fill="#fcfcfc"/>
        <rect id="Rectangle_112" data-name="Rectangle 112" width="328" height="69" transform="translate(12 196)" fill="#fcfcfc"/>
        <rect id="Rectangle_110" data-name="Rectangle 110" width="328" height="69" transform="translate(12 472)" fill="#fcfcfc"/>
      </g>
      <text id="Tanpa_DP_pembayaran_di_akhir" data-name="Tanpa DP, pembayaran di akhir" transform="translate(83 145.628)" font-size="18" font-family="Roboto-Regular, Roboto"><tspan x="0" y="0">Tanpa DP, pembayaran di akhir</tspan></text>
      <text id="_1_hari_jadi" data-name="1 hari jadi" transform="translate(83 218.5)" font-size="18" font-family="Roboto-Regular, Roboto"><tspan x="0" y="0">1 hari jadi</tspan></text>
      <text id="Harga_Mulai_dari_50_Ribu" data-name="Harga Mulai dari 50 Ribu" transform="translate(83 288)" font-size="18" font-family="Roboto-Regular, Roboto"><tspan x="0" y="0">Harga Mulai dari 50 Ribu</tspan></text>
      <text id="Konsultasi_Gratis" data-name="Konsultasi Gratis" transform="translate(83 426)" font-size="18" font-family="Roboto-Regular, Roboto"><tspan x="0" y="0">Konsultasi Gratis</tspan></text>
      <text id="_3X_Revisi" data-name="3X Revisi" transform="translate(83 494.5)" font-size="18" font-family="Roboto-Regular, Roboto"><tspan x="0" y="0">3X Revisi</tspan></text>
      <text id="Klien_mendapatkan_video_proses_olah_data_dan_hasil_olah_data." data-name="Klien mendapatkan video  
proses olah data dan 
hasil olah data." transform="translate(83 555.5)" font-size="18" font-family="Roboto-Regular, Roboto"><tspan x="0" y="0" xml:space="preserve">Klien mendapatkan video  </tspan><tspan x="0" y="22">proses olah data dan </tspan><tspan x="0" y="44">hasil olah data.</tspan></text>
      <text id="Transfer_Bank_Shopee_Fastwork_Bertemu_Langsung_OVO_GOPAY" data-name="Transfer Bank, Shopee, Fastwork, 
Bertemu Langsung, OVO, GOPAY" transform="translate(83 347)" font-size="18" font-family="Roboto-Regular, Roboto"><tspan x="0" y="0">Transfer Bank, Shopee, Fastwork, </tspan><tspan x="0" y="22">Bertemu Langsung, OVO, GOPAY</tspan></text>
      <text id="Viola" transform="translate(146 64.345)" font-size="32" font-family="Poppins-Bold, Poppins" font-weight="700"><tspan x="0" y="0">Viola</tspan></text>
      <g id="Repeat_Grid_2" data-name="Repeat Grid 2" transform="translate(39.022 129.97)" clip-path="url(#clip-path)">
        <g transform="translate(-589.022 -1617.97)">
          <path id="Icon_awesome-check" data-name="Icon awesome-check" d="M6.335,18.212.273,12.151a.933.933,0,0,1,0-1.319L1.592,9.513a.933.933,0,0,1,1.319,0L6.994,13.6,15.74,4.85a.933.933,0,0,1,1.319,0l1.319,1.319a.933.933,0,0,1,0,1.319L7.654,18.212A.933.933,0,0,1,6.335,18.212Z" transform="translate(591.308 1615.097)" fill="#b4c000"/>
        </g>
        <g transform="translate(-589.022 -1547.97)">
          <path id="Icon_awesome-check-2" data-name="Icon awesome-check" d="M6.335,18.212.273,12.151a.933.933,0,0,1,0-1.319L1.592,9.513a.933.933,0,0,1,1.319,0L6.994,13.6,15.74,4.85a.933.933,0,0,1,1.319,0l1.319,1.319a.933.933,0,0,1,0,1.319L7.654,18.212A.933.933,0,0,1,6.335,18.212Z" transform="translate(591.308 1615.097)" fill="#b4c000"/>
        </g>
        <g transform="translate(-589.022 -1477.97)">
          <path id="Icon_awesome-check-3" data-name="Icon awesome-check" d="M6.335,18.212.273,12.151a.933.933,0,0,1,0-1.319L1.592,9.513a.933.933,0,0,1,1.319,0L6.994,13.6,15.74,4.85a.933.933,0,0,1,1.319,0l1.319,1.319a.933.933,0,0,1,0,1.319L7.654,18.212A.933.933,0,0,1,6.335,18.212Z" transform="translate(591.308 1615.097)" fill="#b4c000"/>
        </g>
        <g transform="translate(-589.022 -1407.97)">
          <path id="Icon_awesome-check-4" data-name="Icon awesome-check" d="M6.335,18.212.273,12.151a.933.933,0,0,1,0-1.319L1.592,9.513a.933.933,0,0,1,1.319,0L6.994,13.6,15.74,4.85a.933.933,0,0,1,1.319,0l1.319,1.319a.933.933,0,0,1,0,1.319L7.654,18.212A.933.933,0,0,1,6.335,18.212Z" transform="translate(591.308 1615.097)" fill="#b4c000"/>
        </g>
        <g transform="translate(-589.022 -1337.97)">
          <path id="Icon_awesome-check-5" data-name="Icon awesome-check" d="M6.335,18.212.273,12.151a.933.933,0,0,1,0-1.319L1.592,9.513a.933.933,0,0,1,1.319,0L6.994,13.6,15.74,4.85a.933.933,0,0,1,1.319,0l1.319,1.319a.933.933,0,0,1,0,1.319L7.654,18.212A.933.933,0,0,1,6.335,18.212Z" transform="translate(591.308 1615.097)" fill="#b4c000"/>
        </g>
        <g transform="translate(-589.022 -1267.97)">
          <path id="Icon_awesome-check-6" data-name="Icon awesome-check" d="M6.335,18.212.273,12.151a.933.933,0,0,1,0-1.319L1.592,9.513a.933.933,0,0,1,1.319,0L6.994,13.6,15.74,4.85a.933.933,0,0,1,1.319,0l1.319,1.319a.933.933,0,0,1,0,1.319L7.654,18.212A.933.933,0,0,1,6.335,18.212Z" transform="translate(591.308 1615.097)" fill="#b4c000"/>
        </g>
        <g transform="translate(-589.022 -1197.97)">
          <path id="Icon_awesome-check-7" data-name="Icon awesome-check" d="M6.335,18.212.273,12.151a.933.933,0,0,1,0-1.319L1.592,9.513a.933.933,0,0,1,1.319,0L6.994,13.6,15.74,4.85a.933.933,0,0,1,1.319,0l1.319,1.319a.933.933,0,0,1,0,1.319L7.654,18.212A.933.933,0,0,1,6.335,18.212Z" transform="translate(591.308 1615.097)" fill="#b4c000"/>
        </g>
      </g>
    </g>
    <g id="Group_4996" data-name="Group 4996">
      <g transform="matrix(1, 0, 0, 1, -26.5, 30.34)" filter="url(#Rectangle_367)">
        <rect id="Rectangle_367-2" data-name="Rectangle 367" width="347.252" height="525.779" rx="25" transform="translate(40.5 728)" fill="#fff"/>
      </g>
      <g id="Group_4993" data-name="Group 4993" transform="translate(12 642.565)">
        <rect id="Rectangle_108-2" data-name="Rectangle 108" width="328" height="69" transform="translate(12 334)" fill="#fcfcfc"/>
        <rect id="Rectangle_112-2" data-name="Rectangle 112" width="328" height="69" transform="translate(12 196)" fill="#fcfcfc"/>
        <rect id="Rectangle_110-2" data-name="Rectangle 110" width="328" height="69" transform="translate(12 472)" fill="#fcfcfc"/>
      </g>
      <text id="Dengan_DP_bayar_full_di_awal" data-name="Dengan DP/ bayar full di awal" transform="translate(79.365 811.628)" font-size="18" font-family="Roboto-Regular, Roboto"><tspan x="0" y="0">Dengan DP/ bayar full di awal</tspan></text>
      <text id="Harga_Lebih_dari_1_hari" data-name="Harga Lebih dari 1 hari" transform="translate(79.365 884.5)" font-size="18" font-family="Roboto-Regular, Roboto"><tspan x="0" y="0">Harga Lebih dari 1 hari</tspan></text>
      <text id="Lebih_Mahal" data-name="Lebih Mahal" transform="translate(79.365 954)" font-size="18" font-family="Roboto-Regular, Roboto"><tspan x="0" y="0">Lebih Mahal</tspan></text>
      <text id="Konsultasi_berbayar" data-name="Konsultasi berbayar" transform="translate(79.365 1092)" font-size="18" font-family="Roboto-Regular, Roboto"><tspan x="0" y="0">Konsultasi berbayar</tspan></text>
      <text id="_1X_Revisi" data-name="1X Revisi" transform="translate(79.365 1160.5)" font-size="18" font-family="Roboto-Regular, Roboto"><tspan x="0" y="0">1X Revisi</tspan></text>
      <text id="Hanya_mengirimkan_hasil_olah_data" data-name="Hanya mengirimkan hasil 
olah data" transform="translate(79.365 1221.5)" font-size="18" font-family="Roboto-Regular, Roboto"><tspan x="0" y="0">Hanya mengirimkan hasil </tspan><tspan x="0" y="22">olah data</tspan></text>
      <text id="Hanya_Trabsfer_Bank" data-name="Hanya Trabsfer Bank" transform="translate(79.365 1013)" font-size="18" font-family="Roboto-Regular, Roboto"><tspan x="0" y="0">Hanya Trabsfer Bank</tspan></text>
      <text id="Jasa_Lain" data-name="Jasa Lain" transform="translate(111 711.345)" font-size="32" font-family="Poppins-Bold, Poppins" font-weight="700"><tspan x="0" y="0">Jasa Lain</tspan></text>
      <g id="Repeat_Grid_3" data-name="Repeat Grid 3" transform="translate(34.636 795.1)" clip-path="url(#clip-path-2)">
        <g transform="translate(-1068.547 -1617.1)">
          <path id="Icon_metro-cross" data-name="Icon metro-cross" d="M17.513,14.043h0L12.938,9.468l4.575-4.575h0a.472.472,0,0,0,0-.666L15.352,2.066a.472.472,0,0,0-.666,0h0L10.111,6.64,5.536,2.066h0a.472.472,0,0,0-.666,0L2.708,4.227a.472.472,0,0,0,0,.666h0L7.283,9.468,2.708,14.043h0a.472.472,0,0,0,0,.666L4.87,16.87a.472.472,0,0,0,.666,0h0L10.111,12.3l4.575,4.575h0a.472.472,0,0,0,.666,0l2.161-2.161a.472.472,0,0,0,0-.666Z" transform="translate(1067.965 1617.16)" fill="red"/>
        </g>
        <g transform="translate(-1068.547 -1547.1)">
          <path id="Icon_metro-cross-2" data-name="Icon metro-cross" d="M17.513,14.043h0L12.938,9.468l4.575-4.575h0a.472.472,0,0,0,0-.666L15.352,2.066a.472.472,0,0,0-.666,0h0L10.111,6.64,5.536,2.066h0a.472.472,0,0,0-.666,0L2.708,4.227a.472.472,0,0,0,0,.666h0L7.283,9.468,2.708,14.043h0a.472.472,0,0,0,0,.666L4.87,16.87a.472.472,0,0,0,.666,0h0L10.111,12.3l4.575,4.575h0a.472.472,0,0,0,.666,0l2.161-2.161a.472.472,0,0,0,0-.666Z" transform="translate(1067.965 1617.16)" fill="red"/>
        </g>
        <g transform="translate(-1068.547 -1477.1)">
          <path id="Icon_metro-cross-3" data-name="Icon metro-cross" d="M17.513,14.043h0L12.938,9.468l4.575-4.575h0a.472.472,0,0,0,0-.666L15.352,2.066a.472.472,0,0,0-.666,0h0L10.111,6.64,5.536,2.066h0a.472.472,0,0,0-.666,0L2.708,4.227a.472.472,0,0,0,0,.666h0L7.283,9.468,2.708,14.043h0a.472.472,0,0,0,0,.666L4.87,16.87a.472.472,0,0,0,.666,0h0L10.111,12.3l4.575,4.575h0a.472.472,0,0,0,.666,0l2.161-2.161a.472.472,0,0,0,0-.666Z" transform="translate(1067.965 1617.16)" fill="red"/>
        </g>
        <g transform="translate(-1068.547 -1407.1)">
          <path id="Icon_metro-cross-4" data-name="Icon metro-cross" d="M17.513,14.043h0L12.938,9.468l4.575-4.575h0a.472.472,0,0,0,0-.666L15.352,2.066a.472.472,0,0,0-.666,0h0L10.111,6.64,5.536,2.066h0a.472.472,0,0,0-.666,0L2.708,4.227a.472.472,0,0,0,0,.666h0L7.283,9.468,2.708,14.043h0a.472.472,0,0,0,0,.666L4.87,16.87a.472.472,0,0,0,.666,0h0L10.111,12.3l4.575,4.575h0a.472.472,0,0,0,.666,0l2.161-2.161a.472.472,0,0,0,0-.666Z" transform="translate(1067.965 1617.16)" fill="red"/>
        </g>
        <g transform="translate(-1068.547 -1337.1)">
          <path id="Icon_metro-cross-5" data-name="Icon metro-cross" d="M17.513,14.043h0L12.938,9.468l4.575-4.575h0a.472.472,0,0,0,0-.666L15.352,2.066a.472.472,0,0,0-.666,0h0L10.111,6.64,5.536,2.066h0a.472.472,0,0,0-.666,0L2.708,4.227a.472.472,0,0,0,0,.666h0L7.283,9.468,2.708,14.043h0a.472.472,0,0,0,0,.666L4.87,16.87a.472.472,0,0,0,.666,0h0L10.111,12.3l4.575,4.575h0a.472.472,0,0,0,.666,0l2.161-2.161a.472.472,0,0,0,0-.666Z" transform="translate(1067.965 1617.16)" fill="red"/>
        </g>
        <g transform="translate(-1068.547 -1267.1)">
          <path id="Icon_metro-cross-6" data-name="Icon metro-cross" d="M17.513,14.043h0L12.938,9.468l4.575-4.575h0a.472.472,0,0,0,0-.666L15.352,2.066a.472.472,0,0,0-.666,0h0L10.111,6.64,5.536,2.066h0a.472.472,0,0,0-.666,0L2.708,4.227a.472.472,0,0,0,0,.666h0L7.283,9.468,2.708,14.043h0a.472.472,0,0,0,0,.666L4.87,16.87a.472.472,0,0,0,.666,0h0L10.111,12.3l4.575,4.575h0a.472.472,0,0,0,.666,0l2.161-2.161a.472.472,0,0,0,0-.666Z" transform="translate(1067.965 1617.16)" fill="red"/>
        </g>
        <g transform="translate(-1068.547 -1197.1)">
          <path id="Icon_metro-cross-7" data-name="Icon metro-cross" d="M17.513,14.043h0L12.938,9.468l4.575-4.575h0a.472.472,0,0,0,0-.666L15.352,2.066a.472.472,0,0,0-.666,0h0L10.111,6.64,5.536,2.066h0a.472.472,0,0,0-.666,0L2.708,4.227a.472.472,0,0,0,0,.666h0L7.283,9.468,2.708,14.043h0a.472.472,0,0,0,0,.666L4.87,16.87a.472.472,0,0,0,.666,0h0L10.111,12.3l4.575,4.575h0a.472.472,0,0,0,.666,0l2.161-2.161a.472.472,0,0,0,0-.666Z" transform="translate(1067.965 1617.16)" fill="red"/>
        </g>
      </g>
    </g>
  </g>
</svg>
