<svg xmlns="http://www.w3.org/2000/svg" width="36.781" height="41.373" viewBox="0 0 36.781 41.373">
  <g id="Group_4989" data-name="Group 4989" transform="translate(345.343 -2347)">
    <path id="Path_1835" data-name="Path 1835" d="M22.072,25.746H30.44A18.13,18.13,0,0,1,32.618,18.4c1.5-2.6,3.634-4.2,6.045-4.2s4.534,1.611,6.045,4.2a18.076,18.076,0,0,1,2.178,7.346h8.357a1.759,1.759,0,0,1,1.8,1.8L55.366,50.961c-.211,2.934-2.056,4.612-4.734,4.612H26.695c-2.978,0-4.556-2.078-4.734-4.612l-1.689-23.4a1.774,1.774,0,0,1,1.8-1.811Zm10.457,0H44.775a15.816,15.816,0,0,0-1.889-6.3c-1.111-1.945-2.623-3.156-4.223-3.156s-3.112,1.211-4.245,3.167A15.94,15.94,0,0,0,32.529,25.746Z" transform="translate(-365.611 2332.8)" fill="#ea501f"/>
    <path id="Path_1836" data-name="Path 1836" d="M128.127,179.269a.848.848,0,1,1,.956-1.4c.244.167.5.333.778.5a10.531,10.531,0,0,0,5.256,1.778,3.609,3.609,0,0,0,3.156-1.545h0c.044-.078.089-.122.1-.156a4.179,4.179,0,0,0,.445-1,3,3,0,0,0-.111-2.045,4.292,4.292,0,0,0-1.778-1.878h0a8.638,8.638,0,0,0-2.245-.933c-2.289-.645-3.978-1.556-4.89-2.778-1-1.345-1.078-2.967-.011-4.934a4.792,4.792,0,0,1,4.012-2.256,10.482,10.482,0,0,1,5.445,1.245.85.85,0,1,1-.778,1.511,8.733,8.733,0,0,0-4.545-1.067,3.132,3.132,0,0,0-2.634,1.367c-.711,1.3-.7,2.323-.122,3.1.667.9,2.056,1.6,3.99,2.145a11,11,0,0,1,2.667,1.122h0a5.914,5.914,0,0,1,2.456,2.656,4.708,4.708,0,0,1,.2,3.189,5.535,5.535,0,0,1-.633,1.422c-.067.1-.111.178-.144.233h0a5.267,5.267,0,0,1-4.556,2.289,12.149,12.149,0,0,1-6.145-2.023A9.906,9.906,0,0,1,128.127,179.269Z" transform="translate(-461.153 2200.891)" fill="#fff"/>
  </g>
</svg>
