<svg xmlns="http://www.w3.org/2000/svg" xmlns:xlink="http://www.w3.org/1999/xlink" width="119.383" height="119.623" viewBox="0 0 119.383 119.623">
  <defs>
    <filter id="Path_262" x="0" y="0" width="119.383" height="119.623" filterUnits="userSpaceOnUse">
      <feOffset dy="4" input="SourceAlpha"/>
      <feGaussianBlur stdDeviation="8" result="blur"/>
      <feFlood flood-opacity="0.102"/>
      <feComposite operator="in" in2="blur"/>
      <feComposite in="SourceGraphic"/>
    </filter>
  </defs>
  <g id="Group_4933" data-name="Group 4933" transform="translate(20.908 17.413)">
    <g transform="matrix(1, 0, 0, 1, -20.91, -17.41)" filter="url(#Path_262)">
      <path id="Path_262-2" data-name="Path 262" d="M6.623,55.361l-.2-.351A35.663,35.663,0,1,1,20.279,68.543l-.337-.186L1.758,73.123Z" transform="translate(22.34 18.5)" fill="#fff"/>
    </g>
    <path id="Path_264" data-name="Path 264" d="M34.054,63.128A29.106,29.106,0,0,1,20.169,59.6L17.393,58.08l-3.059.8-6.28,1.647,1.608-5.871.878-3.209L8.875,48.567A29.065,29.065,0,1,1,34.054,63.128Z" transform="translate(4.566 4.369)" fill="#79ba7e"/>
    <path id="Path_265" data-name="Path 265" d="M44.542,35.006c-.872-.434-5.154-2.544-5.95-2.833s-1.38-.434-1.961.434-2.25,2.833-2.757,3.412-1.015.653-1.887.219a23.724,23.724,0,0,1-7-4.323,26.172,26.172,0,0,1-4.846-6.032c-.508-.872-.056-1.343.382-1.777.391-.391.872-1.017,1.306-1.525a5.982,5.982,0,0,0,.872-1.453,1.592,1.592,0,0,0-.074-1.525c-.219-.434-1.961-4.722-2.687-6.464-.705-1.7-1.426-1.467-1.961-1.494-.508-.027-1.089-.029-1.668-.029a3.2,3.2,0,0,0-2.321,1.091,9.772,9.772,0,0,0-3.048,7.264c0,4.286,3.121,8.429,3.555,9.008s6.14,9.376,14.881,13.149a51.333,51.333,0,0,0,4.964,1.835,11.939,11.939,0,0,0,5.487.345c1.674-.25,5.154-2.106,5.879-4.139a7.251,7.251,0,0,0,.508-4.139C45.995,35.659,45.415,35.44,44.542,35.006Z" transform="translate(10.131 10.573)" fill="#fff"/>
  </g>
</svg>
